<svg version="1.1" id="Calque_1" xmlns="http://www.w3.org/2000/svg" x="0" y="0" viewBox="0 0 798 454" style="enable-background:new 0 0 798 454" xml:space="preserve"><style>.st0{opacity:.2;fill:#fff;enable-background:new}</style><path class="st0" d="m114.4 141.3 49-10.5v41h36v42h-37v72.5s-.5 26 37 15v38.5s-21 14-63 0c0 0-19.3-14.4-22-39.3s0-159.2 0-159.2zM215.4 173.3V346h49V227.8s18-20 36-8.5v-46.8s-9.8-5.3-27.3.7c0 0-11 6-13.4 13.5l-2.4-14.6-41.9.2v1zM313.1 173h48.7v173.1h-48.7zM313.1 157.3l48.7-10.7V107l-48.7 10.6zM516.9 202.1s-13.3-25.8-44.8-31.8-46.3 14.5-46.3 14.5l-2.8 1.5v-79.4l-44.6 10.4V346h51.3v-11c19.5 13.3 40.3 12 40.3 12 33.8-7 41.8-24.3 41.8-24.3s11.8-11 18-50-12.9-70.6-12.9-70.6zm-51.8 97.8c-21 11-36-5-36-5v-72.3s6-10.3 25.6-9.7c19.6.6 27.1 32.3 27.1 32.3s4.3 43.7-16.7 54.7zM681.5 231.3c-6-43.3-42-58.3-42-58.3s-47-15.4-78 19-20.7 87.7-20.7 87.7 4.7 44.3 46 61c41.4 16.7 87.7-7 87.7-7l-.3-38.3c-28 11-40 11.3-62.7 8.5S588.8 276 588.8 276h95c3-29-2.4-44.7-2.3-44.7zm-93.6 8.5v-1s-1.2-27.7 24-29.7 26 30.7 26 30.7h-50z"/></svg>