<svg version="1.1" id="Calque_1" xmlns="http://www.w3.org/2000/svg" x="0" y="0" viewBox="0 0 979 300" style="enable-background:new 0 0 979 300" xml:space="preserve"><style>.st1{fill:#f8ffff}.st2{fill:#dee0e0}</style><path d="M239.3 290.6H60.9c-28.1 0-50.8-22.7-50.8-50.8V61.3c0-28.1 22.7-50.8 50.8-50.8h178.5c28.1 0 50.8 22.7 50.8 50.8v178.5c-.1 28.1-22.8 50.8-50.9 50.8z" style="fill:#0d1414"/><path class="st1" d="M105.2 212.3c-10.3 0-18.6-8.3-18.6-18.6v-87.5c0-10.3 8.3-18.6 18.6-18.6s18.6 8.3 18.6 18.6v87.5c0 10.2-8.3 18.6-18.6 18.6z"/><path class="st2" d="M195 212.3c-10.3 0-18.6-8.3-18.6-18.6v-87.5c0-10.3 8.3-18.6 18.6-18.6s18.6 8.3 18.6 18.6v87.5c0 10.2-8.3 18.6-18.6 18.6zM162.8 163.7c-7.3 7.3-19 7.3-26.3 0l-44.4-44.4c-7.3-7.3-7.3-19 0-26.3 7.3-7.3 19-7.3 26.3 0l44.4 44.4c7.3 7.3 7.3 19.1 0 26.3z"/><path class="st1" d="M136.9 164.1c-7.3-7.3-7.3-19 0-26.3L181.8 93c7.3-7.3 19-7.3 26.3 0 7.3 7.3 7.3 19 0 26.3l-44.8 44.8c-7.3 7.3-19.1 7.3-26.4 0z"/><path d="M445.2 208.5v-86l-38.6 51.4h-4.4l-37.7-51.6v86.1h-22.3V90h25.7l37.1 50.9L442 90h25.5v118.4h-22.3zM488.9 110.3c-2.5-2.1-3.8-5.1-3.8-9 0-3.8 1.3-6.8 3.8-9 2.5-2.1 5.3-3.2 8.4-3.2 3 0 5.8 1.1 8.4 3.2 2.5 2.1 3.8 5.1 3.8 9 0 3.8-1.3 6.8-3.8 9-2.5 2.1-5.3 3.2-8.4 3.2-3.1 0-5.9-1-8.4-3.2zm18.7 14.2H487v83.8h20.6v-83.8zM608.3 208.3h-20.6v-43.7c0-6.5-1.8-11.9-5.2-16.1-3.5-4.2-8.5-6.3-14.9-6.3-6.2 0-11.3 2.3-15.3 6.8s-6 10-6 16.6v42.6h-20.5v-83.6h18.4l1.4 11.3c8.6-8.3 17.7-12.5 27.4-12.5 10.2 0 18.6 3.6 25.3 10.9 6.7 7.3 10.1 17.3 10.1 30v44zM628 110.3c-2.5-2.1-3.8-5.1-3.8-9 0-3.8 1.3-6.8 3.8-9 2.5-2.1 5.3-3.2 8.4-3.2 3 0 5.8 1.1 8.4 3.2 2.5 2.1 3.8 5.1 3.8 9 0 3.8-1.3 6.8-3.8 9-2.5 2.1-5.3 3.2-8.4 3.2-3.1 0-5.9-1-8.4-3.2zm18.7 14.2H626v83.8h20.6v-83.8zM741.4 208.3h-20.6v-44.7c0-5.9-1.5-10.8-4.5-14.9s-7.2-6.1-12.6-6.1c-5.4 0-9.7 2.1-12.9 6.2-3.2 4.1-4.8 9.1-4.8 14.8v44.7h-20.6v-83.6h19.1l1.5 10.2c2-3.9 5.1-6.9 9.1-8.7s8.3-2.8 12.9-2.8c12.2 0 20.4 5.2 24.7 15.6 6.4-10.2 15.7-15.2 27.9-15.2 11.7 0 20.6 3.4 26.5 10.2 5.9 6.8 8.9 16.6 8.9 29.4v45h-20.6v-45c0-6-1.3-10.9-3.9-14.6-2.6-3.8-6.5-5.7-11.8-5.7-5.4 0-9.8 2-13.1 6-3.3 4-5 8.9-5 14.6v44.6zM882.4 136.4l.7-11.5h19.8v83.4h-19.5l-1-12.2c-2.3 4.5-6 8.1-11.3 10.7-5.3 2.6-10.5 3.9-15.7 4.1-12.7.1-23.1-3.7-31-11.4-8-7.7-11.9-18.7-11.9-32.9 0-13.9 4.1-24.6 12.3-32.3 8.2-7.7 18.6-11.4 31.2-11.3 5.6 0 10.9 1.2 15.7 3.7 4.7 2.3 8.3 5.6 10.7 9.7zm-24.7 4.9c-7.1 0-13 2.3-17.7 6.8-4.7 4.5-7 10.7-7 18.4 0 7.8 2.3 14 7 18.5 4.7 4.6 10.6 6.9 17.7 6.9 6.2 0 11.4-1.7 15.7-5.2 4.2-3.5 6.8-7.7 7.8-12.6 1-4.9 1-9.8 0-14.8s-3.6-9.2-7.8-12.7c-4.3-3.6-9.5-5.3-15.7-5.3zM920.3 90h20.5v118.3h-20.5V90z"/></svg>